<?xml version="1.0" encoding="utf-8"?>
<!-- Generator: Adobe Illustrator 24.3.0, SVG Export Plug-In . SVG Version: 6.00 Build 0)  -->
<svg version="1.1" id="Layer_1" xmlns="http://www.w3.org/2000/svg" xmlns:xlink="http://www.w3.org/1999/xlink" x="0px" y="0px"
	 viewBox="0 0 512 512" style="enable-background:new 0 0 512 512;" xml:space="preserve">
<style type="text/css">
	.st0{fill:#457B9D;}
</style>
<path class="st0" d="M152,56h16v16h-16V56z"/>
<path class="st0" d="M330.3,148.6c-45.7,0-89,17.1-122.6,48l-4.9-1.9c6-17.5,9.8-35.8,11.2-54.3h91.5v-39l-33-11V66.1H256v18.8
	l-16.5-5.5V57.8H223v16l-15.5-5.2c-3.8-14.6-9.1-28.9-15.8-42.4l-3.5-7c-6-11.9-18-19.3-31.3-19.3c-13.3,0-25.3,7.4-31.3,19.3
	l-3.5,7c-6.7,13.4-11.9,27.6-15.8,42.2l-15.5,4.8V57.8H74.3v20.6l-16.5,5.1V66.1H41.3v22.5L0,101.3v39.1h99.8
	c1.4,18.5,5.2,36.8,11.2,54.3l-78,30.9v40l103.3-15.7l1.2,2.4c3.7,7.4,11.1,12,19.3,12c1.6,0,3.1-0.3,4.7-0.6
	c-2.2,5.6-4.1,11.3-5.7,17.2H0V479h226.3c30.7,21.6,66.6,33,104,33C430.5,512,512,430.5,512,330.3S430.5,148.6,330.3,148.6z
	 M454.3,221.6l-4.5,22.6c-1.6,8-7.8,14.1-15.7,15.7c-17,3.4-29.4,18.5-29.4,35.9v1.6c0,9.1-7.4,16.5-16.5,16.5
	c-9.1,0-16.5-7.4-16.5-16.5v-28.9c0-15.1-5-30.1-14-42.1c-6.9-9.2-10.7-20.7-10.7-32.2V166C389.6,170.3,427.4,191,454.3,221.6z
	 M264.3,236.8v9.6l-79.1-12l6.5-13c1.9-3.7,3.6-7.5,5.2-11.3L264.3,236.8z M289,113.3v10.6h-74.3v0c0-12.2-1.1-24.4-3.1-36.4
	L289,113.3z M16.5,123.9v-10.4L102.3,87c-2.1,12.2-3.2,24.5-3.2,36.8H16.5z M49.5,246.4v-9.6l67.3-26.7c1.6,3.8,3.4,7.6,5.2,11.3
	l6.5,13L49.5,246.4z M152.3,244.9L136.9,214c-13.9-27.8-21.3-59-21.3-90.2s7.4-62.3,21.3-90.2l3.5-7c3.1-6.3,9.5-10.2,16.5-10.2
	c7,0,13.4,3.9,16.5,10.2l3.5,7c13.9,27.9,21.3,59,21.3,90.2s-7.4,62.3-21.3,90.2l-15.4,30.9C159.7,248.4,154.1,248.4,152.3,244.9z
	 M90.6,383l-74,68.8V309L90.6,383z M102.8,394.2c15.4,12.1,34.2,18.7,54.1,18.7c19.9,0,38.7-6.6,54.1-18.7l73.5,68.2H29.3
	L102.8,394.2z M297.3,451.8l-74-68.8l74-74V451.8z M207.5,375.5c-13.5,13.5-31.5,20.9-50.6,20.9s-37-7.4-50.5-20.9l-78.2-78.2h257.4
	L207.5,375.5z M258.8,479h55.1V280.8H173c3.2-10.3,7.5-20.2,12.7-29.6l95.1,14.4v-40l-55.9-22.2c29.6-24.7,66.6-38.3,105.4-38.3
	v28.9c0,15.1,5,30.1,14,42.1c6.9,9.2,10.7,20.7,10.7,32.2v28.9c0,18.2,14.8,33,33,33s33-14.8,33-33v-1.6c0-9.5,6.8-17.8,16.1-19.7
	c14.5-2.9,25.8-14.2,28.7-28.7l1.7-8.6c14.6,21.9,24.2,47.5,26.9,75h-32.3c-18.1,0-32.9,14.8-32.9,32.9c0,6.7-4,12.7-10.3,15.2
	l-10.3,4.1c-12.6,5-20.7,17-20.7,30.5v11.1c0,14-9.4,26.5-22.9,30.4c-20.5,5.9-34.9,24.9-34.9,46.3v11.2
	C305.3,495.5,281,489.8,258.8,479z M346.8,494.6v-10.4c0-14,9.4-26.5,22.9-30.4c20.5-5.9,34.9-24.9,34.9-46.3v-11.1
	c0-6.7,4-12.7,10.3-15.2l10.3-4.1c12.6-5,20.7-17,20.7-30.5c0-9,7.4-16.4,16.4-16.4h33.2C495.5,415.8,430.2,486.3,346.8,494.6z"/>
</svg>
